solid OpenSCAD_Model
  facet normal 0.832050 0.554700 0.000000
    outer loop
      vertex 5.000000 10.000000 0.000000
      vertex 5.000000 10.000000 2.000000
      vertex 15.000000 -5.000000 2.000000
    endloop
  endfacet
  facet normal 0.832050 0.554700 0.000000
    outer loop
      vertex 15.000000 -5.000000 0.000000
      vertex 5.000000 10.000000 0.000000
      vertex 15.000000 -5.000000 2.000000
    endloop
  endfacet
  facet normal 0.800000 -0.600000 0.000000
    outer loop
      vertex 5.000000 10.000000 0.000000
      vertex 20.000000 30.000000 0.000000
      vertex 20.000000 30.000000 2.000000
    endloop
  endfacet
  facet normal 0.800000 -0.600000 0.000000
    outer loop
      vertex 5.000000 10.000000 2.000000
      vertex 5.000000 10.000000 0.000000
      vertex 20.000000 30.000000 2.000000
    endloop
  endfacet
  facet normal 0.000000 0.000000 -1.000000
    outer loop
      vertex 0.000000 45.000000 0.000000
      vertex 20.000000 30.000000 0.000000
      vertex -15.000000 10.000000 0.000000
    endloop
  endfacet
  facet normal -0.000000 0.000000 -1.000000
    outer loop
      vertex -15.000000 10.000000 0.000000
      vertex 20.000000 30.000000 0.000000
      vertex 5.000000 10.000000 0.000000
    endloop
  endfacet
  facet normal 0.000000 0.000000 -1.000000
    outer loop
      vertex -15.000000 10.000000 0.000000
      vertex 5.000000 10.000000 0.000000
      vertex 15.000000 -5.000000 0.000000
    endloop
  endfacet
  facet normal -0.000000 0.000000 -1.000000
    outer loop
      vertex 2.000000 -9.000000 0.000000
      vertex 15.000000 -5.000000 0.000000
      vertex -5.000000 -45.000000 0.000000
    endloop
  endfacet
  facet normal 0.000000 0.000000 -1.000000
    outer loop
      vertex -15.000000 10.000000 0.000000
      vertex 15.000000 -5.000000 0.000000
      vertex 2.000000 -9.000000 0.000000
    endloop
  endfacet
  facet normal 0.894427 -0.447214 0.000000
    outer loop
      vertex -5.000000 -45.000000 0.000000
      vertex 15.000000 -5.000000 0.000000
      vertex 15.000000 -5.000000 2.000000
    endloop
  endfacet
  facet normal 0.894427 -0.447214 0.000000
    outer loop
      vertex -5.000000 -45.000000 2.000000
      vertex -5.000000 -45.000000 0.000000
      vertex 15.000000 -5.000000 2.000000
    endloop
  endfacet
  facet normal 0.000000 0.000000 1.000000
    outer loop
      vertex -15.000000 10.000000 2.000000
      vertex 2.000000 -9.000000 2.000000
      vertex 15.000000 -5.000000 2.000000
    endloop
  endfacet
  facet normal 0.000000 0.000000 1.000000
    outer loop
      vertex 15.000000 -5.000000 2.000000
      vertex 2.000000 -9.000000 2.000000
      vertex -5.000000 -45.000000 2.000000
    endloop
  endfacet
  facet normal 0.000000 0.000000 1.000000
    outer loop
      vertex -15.000000 10.000000 2.000000
      vertex 5.000000 10.000000 2.000000
      vertex 20.000000 30.000000 2.000000
    endloop
  endfacet
  facet normal 0.000000 0.000000 1.000000
    outer loop
      vertex -15.000000 10.000000 2.000000
      vertex 15.000000 -5.000000 2.000000
      vertex 5.000000 10.000000 2.000000
    endloop
  endfacet
  facet normal 0.000000 0.000000 1.000000
    outer loop
      vertex -15.000000 10.000000 2.000000
      vertex 20.000000 30.000000 2.000000
      vertex 0.000000 45.000000 2.000000
    endloop
  endfacet
  facet normal 0.600000 0.800000 -0.000000
    outer loop
      vertex 0.000000 45.000000 2.000000
      vertex 20.000000 30.000000 2.000000
      vertex 0.000000 45.000000 0.000000
    endloop
  endfacet
  facet normal 0.600000 0.800000 0.000000
    outer loop
      vertex 0.000000 45.000000 0.000000
      vertex 20.000000 30.000000 2.000000
      vertex 20.000000 30.000000 0.000000
    endloop
  endfacet
  facet normal -0.745241 -0.666795 -0.000000
    outer loop
      vertex 2.000000 -9.000000 0.000000
      vertex 2.000000 -9.000000 2.000000
      vertex -15.000000 10.000000 0.000000
    endloop
  endfacet
  facet normal -0.745241 -0.666795 -0.000000
    outer loop
      vertex -15.000000 10.000000 0.000000
      vertex 2.000000 -9.000000 2.000000
      vertex -15.000000 10.000000 2.000000
    endloop
  endfacet
  facet normal -0.919145 0.393919 0.000000
    outer loop
      vertex -15.000000 10.000000 2.000000
      vertex 0.000000 45.000000 2.000000
      vertex -15.000000 10.000000 0.000000
    endloop
  endfacet
  facet normal -0.919145 0.393919 0.000000
    outer loop
      vertex -15.000000 10.000000 0.000000
      vertex 0.000000 45.000000 2.000000
      vertex 0.000000 45.000000 0.000000
    endloop
  endfacet
  facet normal -0.981615 0.190870 0.000000
    outer loop
      vertex -5.000000 -45.000000 2.000000
      vertex 2.000000 -9.000000 2.000000
      vertex -5.000000 -45.000000 0.000000
    endloop
  endfacet
  facet normal -0.981615 0.190870 0.000000
    outer loop
      vertex -5.000000 -45.000000 0.000000
      vertex 2.000000 -9.000000 2.000000
      vertex 2.000000 -9.000000 0.000000
    endloop
  endfacet
endsolid OpenSCAD_Model
